<?xml version="1.0" encoding="UTF-8" standalone="no"?>
<!-- Created with Inkscape (http://www.inkscape.org/) -->

<svg
   xmlns:dc="http://purl.org/dc/elements/1.1/"
   xmlns:cc="http://creativecommons.org/ns#"
   xmlns:rdf="http://www.w3.org/1999/02/22-rdf-syntax-ns#"
   xmlns:svg="http://www.w3.org/2000/svg"
   xmlns="http://www.w3.org/2000/svg"
   xmlns:sodipodi="http://sodipodi.sourceforge.net/DTD/sodipodi-0.dtd"
   xmlns:inkscape="http://www.inkscape.org/namespaces/inkscape"
   width="744.09448819"
   height="1052.3622047"
   id="svg22459"
   version="1.1"
   inkscape:version="0.48.4 r"
   sodipodi:docname="ConfirmationButton.svg">
  <defs
     id="defs22461" />
  <sodipodi:namedview
     id="base"
     pagecolor="#ffffff"
     bordercolor="#666666"
     borderopacity="1.0"
     inkscape:pageopacity="0.0"
     inkscape:pageshadow="2"
     inkscape:zoom="0.49497475"
     inkscape:cx="790.05786"
     inkscape:cy="601.65062"
     inkscape:document-units="px"
     inkscape:current-layer="layer1"
     showgrid="false"
     inkscape:window-width="1024"
     inkscape:window-height="705"
     inkscape:window-x="1912"
     inkscape:window-y="-8"
     inkscape:window-maximized="1" />
  <metadata
     id="metadata22464">
    <rdf:RDF>
      <cc:Work
         rdf:about="">
        <dc:format>image/svg+xml</dc:format>
        <dc:type
           rdf:resource="http://purl.org/dc/dcmitype/StillImage" />
        <dc:title></dc:title>
      </cc:Work>
    </rdf:RDF>
  </metadata>
  <g
     inkscape:label="Layer 1"
     inkscape:groupmode="layer"
     id="layer1">
    <g
       id="g4252"
       transform="matrix(2.3408572,0,0,2.4782141,-465.26816,-1307.0845)">
      <rect
         ry="4.6794109"
         y="579.88568"
         x="200.87611"
         height="23.719482"
         width="25.111359"
         id="rect3078-2-2-5"
         style="fill:#ff0000;fill-opacity:1;fill-rule:evenodd;stroke:#000000;stroke-width:0.50568199;stroke-linecap:butt;stroke-linejoin:miter;stroke-miterlimit:4;stroke-opacity:1;stroke-dasharray:none" />
      <path
         inkscape:connector-curvature="0"
         id="rect4138-6"
         d="m 207.77758,584.3378 c -0.54842,0 -1.08427,0.22386 -1.50447,0.61912 -0.84045,0.79056 -0.84045,2.03979 0,2.83034 l 4.1373,3.8917 -4.18432,3.8917 c -0.84044,0.79054 -0.84044,2.03978 0,2.83033 0.84044,0.79054 2.21553,0.79054 3.05597,0 l 4.13731,-3.89172 4.09029,3.84748 c 0.84044,0.79056 2.21552,0.79056 3.05596,0 0.84046,-0.79053 0.84046,-2.03975 0,-2.83032 l -4.1373,-3.84747 4.09029,-3.84748 c 0.84046,-0.79054 0.84046,-2.03978 0,-2.83032 -0.84045,-0.79055 -2.16851,-0.79055 -3.00895,0 l -4.09029,3.84747 -4.13731,-3.89171 c -0.42022,-0.39526 -0.95606,-0.61912 -1.50448,-0.61912 z"
         style="fill:#ffffff;fill-opacity:1;fill-rule:evenodd;stroke:#000000;stroke-width:0.42140168;stroke-miterlimit:4;stroke-opacity:1;stroke-dasharray:none" />
    </g>
  </g>
</svg>
