<?xml version="1.0" encoding="UTF-8" standalone="no"?>
<!-- Created with Inkscape (http://www.inkscape.org/) -->

<svg
   xmlns:osb="http://www.openswatchbook.org/uri/2009/osb"
   xmlns:dc="http://purl.org/dc/elements/1.1/"
   xmlns:cc="http://creativecommons.org/ns#"
   xmlns:rdf="http://www.w3.org/1999/02/22-rdf-syntax-ns#"
   xmlns:svg="http://www.w3.org/2000/svg"
   xmlns="http://www.w3.org/2000/svg"
   xmlns:xlink="http://www.w3.org/1999/xlink"
   xmlns:sodipodi="http://sodipodi.sourceforge.net/DTD/sodipodi-0.dtd"
   xmlns:inkscape="http://www.inkscape.org/namespaces/inkscape"
   width="320"
   height="480"
   id="svg6204"
   version="1.1"
   inkscape:version="0.48.4 r"
   sodipodi:docname="gameScreen.svg"
   inkscape:export-filename="D:\Game Development\Marmalade Games\marplematch\data\textures\gameBackground.png"
   inkscape:export-xdpi="90"
   inkscape:export-ydpi="90">
  <defs
     id="defs6206">
    <linearGradient
       id="linearGradient4373"
       osb:paint="solid">
      <stop
         style="stop-color:#000000;stop-opacity:1;"
         offset="0"
         id="stop4375" />
    </linearGradient>
    <linearGradient
       inkscape:collect="always"
       xlink:href="#linearGradient4373"
       id="linearGradient7066"
       gradientUnits="userSpaceOnUse"
       gradientTransform="translate(-465.38148,36.262148)"
       x1="112.88193"
       y1="795.79474"
       x2="136.41628"
       y2="795.79474" />
  </defs>
  <sodipodi:namedview
     id="base"
     pagecolor="#1db6db"
     bordercolor="#666666"
     borderopacity="1.0"
     inkscape:pageopacity="0"
     inkscape:pageshadow="2"
     inkscape:zoom="1.2241786"
     inkscape:cx="360.38285"
     inkscape:cy="360.95282"
     inkscape:document-units="px"
     inkscape:current-layer="layer1"
     showgrid="true"
     inkscape:window-width="1920"
     inkscape:window-height="1017"
     inkscape:window-x="-8"
     inkscape:window-y="-8"
     inkscape:window-maximized="1"
     showguides="true"
     inkscape:guide-bbox="true">
    <inkscape:grid
       type="xygrid"
       id="grid3136" />
  </sodipodi:namedview>
  <metadata
     id="metadata6209">
    <rdf:RDF>
      <cc:Work
         rdf:about="">
        <dc:format>image/svg+xml</dc:format>
        <dc:type
           rdf:resource="http://purl.org/dc/dcmitype/StillImage" />
        <dc:title></dc:title>
      </cc:Work>
    </rdf:RDF>
  </metadata>
  <g
     inkscape:label="Layer 1"
     inkscape:groupmode="layer"
     id="layer1"
     transform="translate(0,-572.36218)">
    <rect
       style="fill:#01a7bf;fill-opacity:1;fill-rule:evenodd;stroke:none"
       id="rect6232"
       width="320"
       height="480"
       x="0"
       y="572.36218" />
    <path
       sodipodi:type="star"
       style="fill:#a7a7bf;fill-opacity:0.79894178999999999;fill-rule:evenodd;stroke:none;stroke-width:1;stroke-linecap:round;stroke-linejoin:round;stroke-miterlimit:4;stroke-opacity:1;stroke-dasharray:none"
       id="path6240"
       sodipodi:sides="5"
       sodipodi:cx="43.214286"
       sodipodi:cy="41.785714"
       sodipodi:r1="41.909158"
       sodipodi:r2="20.954579"
       sodipodi:arg1="1.4940244"
       sodipodi:arg2="2.122343"
       inkscape:flatsided="false"
       inkscape:rounded="0"
       inkscape:randomized="0"
       d="M 46.428574,83.571426 32.233979,59.633044 4.4669818,57.755177 22.847365,36.857948 16.052848,9.8696721 41.607145,20.892857 65.1749,6.091051 62.58794,33.800983 83.94813,51.64124 56.795005,57.743735 z"
       transform="translate(0,572.36218)"
       inkscape:transform-center-x="-0.99326891"
       inkscape:transform-center-y="3.0455258" />
    <path
       sodipodi:type="star"
       style="fill:#01d9bf;fill-opacity:0.57142861;fill-rule:evenodd;stroke:none"
       id="path6242"
       sodipodi:sides="5"
       sodipodi:cx="153.21429"
       sodipodi:cy="53.92857"
       sodipodi:r1="131.96948"
       sodipodi:r2="65.984741"
       sodipodi:arg1="0.66840121"
       sodipodi:arg2="1.2967197"
       inkscape:flatsided="false"
       inkscape:rounded="0"
       inkscape:randomized="0"
       d="M 256.78572,135.71428 171.0736,117.45047 107.43679,177.70403 98.320211,90.543126 21.35081,48.640296 l 80.07777,-35.604582 16.0671,-86.150937 58.60736,65.1560622 86.89942,-11.3413772 -43.85642,75.873242 z"
       transform="translate(-0.99999998,572.11218)"
       inkscape:transform-center-x="11.037657"
       inkscape:transform-center-y="-1.6341667" />
    <path
       sodipodi:type="star"
       style="fill:#5887a5;fill-opacity:0.43915343000000001;fill-rule:evenodd;stroke:none;stroke-width:1;stroke-linecap:round;stroke-linejoin:round;stroke-miterlimit:4;stroke-opacity:1;stroke-dasharray:none"
       id="path6244"
       sodipodi:sides="5"
       sodipodi:cx="-17.857143"
       sodipodi:cy="242.85715"
       sodipodi:r1="191.58043"
       sodipodi:r2="95.790215"
       sodipodi:arg1="0.65319506"
       sodipodi:arg2="1.2815136"
       inkscape:flatsided="false"
       inkscape:rounded="0"
       inkscape:randomized="0"
       d="M 134.28571,359.28572 9.4684358,334.66716 -81.572566,423.53201 -96.729583,297.21617 -209.3783,238.09178 -93.928571,184.64286 -72.508303,59.237128 14.000569,152.51972 139.88774,134.1391 77.903433,245.23983 z"
       transform="translate(0,572.36218)"
       inkscape:transform-center-x="16.888137"
       inkscape:transform-center-y="-1.4725788" />
    <path
       sodipodi:type="star"
       style="fill:#0188bf;fill-opacity:0.34391534000000001;fill-rule:evenodd;stroke:none;stroke-width:1;stroke-linecap:round;stroke-linejoin:round;stroke-miterlimit:4;stroke-opacity:1;stroke-dasharray:none"
       id="path6246"
       sodipodi:sides="5"
       sodipodi:cx="426.42857"
       sodipodi:cy="294.28571"
       sodipodi:r1="235.4609"
       sodipodi:r2="117.73045"
       sodipodi:arg1="2.9120653"
       sodipodi:arg2="3.5403838"
       inkscape:flatsided="false"
       inkscape:rounded="0"
       inkscape:randomized="0"
       d="M 197.14284,347.85713 317.93629,248.57043 304.62592,92.776511 436.38042,176.97663 580.4361,116.17474 541.07142,267.49999 643.4131,385.71627 487.32988,395.0403 406.52483,528.90386 349.42479,383.34119 z"
       transform="translate(0,572.36218)"
       inkscape:transform-center-x="6.1505896"
       inkscape:transform-center-y="16.554482" />
    <path
       sodipodi:type="star"
       style="fill:#9fa7bf;fill-opacity:0.66137564000000004;fill-rule:evenodd;stroke:none;stroke-width:1;stroke-linecap:round;stroke-linejoin:round;stroke-miterlimit:4;stroke-opacity:1;stroke-dasharray:none"
       id="path6248"
       sodipodi:sides="5"
       sodipodi:cx="142.14286"
       sodipodi:cy="195.71429"
       sodipodi:r1="184.00449"
       sodipodi:r2="92.002246"
       sodipodi:arg1="0.65048857"
       sodipodi:arg2="1.2788071"
       inkscape:flatsided="false"
       inkscape:rounded="0"
       inkscape:randomized="0"
       d="M 288.57142,307.14286 168.62642,283.82237 81.416903,369.40946 66.530962,248.12856 -41.816415,191.63524 68.928569,140.00001 89.175722,19.498137 172.50583,108.86671 293.36663,90.885773 234.12249,197.75382 z"
       transform="translate(0,572.36218)"
       inkscape:transform-center-x="16.367744"
       inkscape:transform-center-y="-1.2604967" />
    <path
       sodipodi:type="star"
       style="fill:#01ffbf;fill-opacity:0.40211638999999999;fill-rule:evenodd;stroke:none;stroke-width:1;stroke-linecap:round;stroke-linejoin:round;stroke-miterlimit:4;stroke-opacity:1;stroke-dasharray:none"
       id="path6250"
       sodipodi:sides="5"
       sodipodi:cx="29.285714"
       sodipodi:cy="422.85714"
       sodipodi:r1="104.12414"
       sodipodi:r2="52.062071"
       sodipodi:arg1="0.38687572"
       sodipodi:arg2="1.0151942"
       inkscape:flatsided="false"
       inkscape:rounded="0"
       inkscape:randomized="0"
       d="M 125.71428,462.14286 56.746111,467.0882 21.720846,526.70612 -4.2947873,462.64168 -71.8182,447.75363 l 52.889624,-44.53934 -6.706499,-68.81924 58.703219,36.53761 63.378569,-27.64458 -16.60904,67.12082 z"
       transform="translate(0,572.36218)"
       inkscape:transform-center-x="2.3376725"
       inkscape:transform-center-y="7.693436" />
    <path
       sodipodi:type="star"
       style="fill:#59a7bf;fill-opacity:0.62962964;fill-rule:evenodd;stroke:none"
       id="path6252"
       sodipodi:sides="5"
       sodipodi:cx="155"
       sodipodi:cy="370.71429"
       sodipodi:r1="82.229767"
       sodipodi:r2="41.114883"
       sodipodi:arg1="0.56872788"
       sodipodi:arg2="1.1970464"
       inkscape:flatsided="false"
       inkscape:rounded="0"
       inkscape:randomized="0"
       d="m 224.28571,415.00001 -54.27429,-6.00921 -35.71917,41.30316 -11.05659,-53.47487 -50.319469,-21.20757 47.440949,-27.04008 4.62003,-54.41016 40.37671,36.76318 53.1748,-12.41976 -22.48678,49.76098 z"
       transform="translate(0,581.3478)"
       inkscape:transform-center-x="6.3990479"
       inkscape:transform-center-y="1.5133259" />
    <path
       sodipodi:type="star"
       style="fill:#01a797;fill-opacity:0.38624336999999997;fill-rule:evenodd;stroke:none;stroke-width:1;stroke-linecap:round;stroke-linejoin:round;stroke-miterlimit:4;stroke-opacity:1;stroke-dasharray:none"
       id="path6254"
       sodipodi:sides="5"
       sodipodi:cx="259.28571"
       sodipodi:cy="416.42857"
       sodipodi:r1="92.123475"
       sodipodi:r2="46.061739"
       sodipodi:arg1="0.85123693"
       sodipodi:arg2="1.4795555"
       inkscape:flatsided="false"
       inkscape:rounded="0"
       inkscape:randomized="0"
       d="m 319.99999,485.71427 -56.5174,-23.41557 -51.32977,33.28304 4.80469,-60.98705 -47.51581,-38.53249 59.48686,-14.2765 21.96338,-57.09742 31.96021,52.16369 61.08993,3.24433 -39.73437,46.51544 z"
       transform="translate(0,572.36218)"
       inkscape:transform-center-x="2.5938169"
       inkscape:transform-center-y="-6.2935509" />
    <path
       sodipodi:type="star"
       style="fill:#70a7bf;fill-opacity:0.51851851000000004;fill-rule:evenodd;stroke:none;stroke-width:1;stroke-linecap:round;stroke-linejoin:round;stroke-miterlimit:4;stroke-opacity:1;stroke-dasharray:none"
       id="path6256"
       sodipodi:sides="5"
       sodipodi:cx="265.71429"
       sodipodi:cy="2.1428566"
       sodipodi:r1="102.0729"
       sodipodi:r2="51.036453"
       sodipodi:arg1="0.68129823"
       sodipodi:arg2="1.3096168"
       inkscape:flatsided="false"
       inkscape:rounded="0"
       inkscape:randomized="0"
       d="M 345.00001,66.428569 278.89294,51.448463 229.07558,97.413426 222.8943,29.912764 163.78461,-3.2624054 226.07144,-30.000003 239.357,-96.468348 l 44.67665,50.975917 67.32062,-7.904527 -34.67513,58.2424478 z"
       transform="translate(0,572.36218)"
       inkscape:transform-center-x="8.1448522"
       inkscape:transform-center-y="-1.6703178" />
    <rect
       style="fill:#ffffff;fill-opacity:0.67368421;fill-rule:evenodd;stroke:#000000;stroke-width:0.98852968;stroke-linecap:butt;stroke-linejoin:miter;stroke-miterlimit:4;stroke-opacity:1;stroke-dasharray:none"
       id="rect7278"
       width="271.01147"
       height="402.94666"
       x="24.494265"
       y="646.94696"
       ry="7.6672568" />
    <g
       id="g4252"
       transform="matrix(0.94942836,0,0,1.0024155,-1430.1222,-23.29622)">
      <rect
         ry="4.6794109"
         y="579.88568"
         x="200.87611"
         height="23.719482"
         width="25.111359"
         id="rect3078-2-2-5"
         style="fill:#01a7bf;fill-opacity:1;fill-rule:evenodd;stroke:#000000;stroke-width:1.22027516px;stroke-linecap:butt;stroke-linejoin:miter;stroke-opacity:1" />
      <path
         inkscape:connector-curvature="0"
         id="rect4138-6"
         d="m 207.77758,584.3378 c -0.54842,0 -1.08427,0.22386 -1.50447,0.61912 -0.84045,0.79056 -0.84045,2.03979 0,2.83034 l 4.1373,3.8917 -4.18432,3.8917 c -0.84044,0.79054 -0.84044,2.03978 0,2.83033 0.84044,0.79054 2.21553,0.79054 3.05597,0 l 4.13731,-3.89172 4.09029,3.84748 c 0.84044,0.79056 2.21552,0.79056 3.05596,0 0.84046,-0.79053 0.84046,-2.03975 0,-2.83032 l -4.1373,-3.84747 4.09029,-3.84748 c 0.84046,-0.79054 0.84046,-2.03978 0,-2.83032 -0.84045,-0.79055 -2.16851,-0.79055 -3.00895,0 l -4.09029,3.84747 -4.13731,-3.89171 c -0.42022,-0.39526 -0.95606,-0.61912 -1.50448,-0.61912 z"
         style="fill:#ffffff;fill-opacity:1;fill-rule:evenodd;stroke:#000000;stroke-width:0.8071875;stroke-miterlimit:4;stroke-opacity:1;stroke-dasharray:none" />
    </g>
    <g
       id="g12756"
       transform="matrix(0.05999867,0,0,0.06006531,285.00033,544.16595)">
      <path
         transform="matrix(0.99833755,0,0,0.99833755,-1210.2693,198.50311)"
         d="m 1703.1172,604.86462 c 0,132.77826 -107.638,240.41631 -240.4163,240.41631 -132.7782,0 -240.4163,-107.63805 -240.4163,-240.41631 0,-132.77826 107.6381,-240.4163 240.4163,-240.4163 132.7783,0 240.4163,107.63804 240.4163,240.4163 z"
         sodipodi:ry="240.41631"
         sodipodi:rx="240.41631"
         sodipodi:cy="604.86462"
         sodipodi:cx="1462.7009"
         id="path12717"
         style="fill:#ffffff;fill-opacity:1;stroke:#000000;stroke-width:20;stroke-miterlimit:4;stroke-opacity:1;stroke-dasharray:none"
         sodipodi:type="arc" />
      <path
         transform="matrix(0.95454548,0,0,0.95454548,-1530.9091,211.01642)"
         d="m 1904.9999,619.50507 c 0,21.6969 -17.5888,39.28571 -39.2857,39.28571 -21.6969,0 -39.2857,-17.58881 -39.2857,-39.28571 0,-21.6969 17.5888,-39.28572 39.2857,-39.28572 21.6969,0 39.2857,17.58882 39.2857,39.28572 z"
         sodipodi:ry="39.285713"
         sodipodi:rx="39.285713"
         sodipodi:cy="619.50507"
         sodipodi:cx="1865.7142"
         id="path12719"
         style="fill:#000000;fill-opacity:1;stroke:none"
         sodipodi:type="arc" />
      <path
         sodipodi:nodetypes="scssscs"
         inkscape:connector-curvature="0"
         id="rect12721"
         d="m 250.35729,657.56523 c 13.81047,0 15.14336,14.93679 15.14336,14.93679 l 9.43421,107.79882 c 1.06646,12.18549 -11.11816,22.06134 -24.92864,22.06134 -13.81038,0 -26.10167,-9.88353 -24.92854,-22.06134 l 10.42734,-108.23825 c 0,0 1.04189,-14.49736 14.85227,-14.49736 z"
         style="fill:#000000;fill-opacity:1;stroke:none" />
      <path
         sodipodi:nodetypes="scssscs"
         inkscape:connector-curvature="0"
         id="rect12721-0"
         d="m 423.08122,802.71946 c 0,13.81047 -17.85446,15.14336 -17.85446,15.14336 L 276.3708,827.29703 C 261.80504,828.3635 250,816.17887 250,802.3684 c 0,-13.81038 11.8142,-26.10167 26.3708,-24.92854 l 129.38114,10.42734 c 0,0 17.32928,1.04188 17.32928,14.85226 z"
         style="fill:#000000;fill-opacity:1;stroke:none" />
    </g>
    <g
       id="g12418"
       transform="matrix(1.0493299,0,0,1.0660444,-2234.9925,-164.59688)">
      <path
         sodipodi:nodetypes="sssssssss"
         inkscape:connector-curvature="0"
         id="rect3096-2-3-6"
         d="m 2135.6121,716.84739 c 1.1296,-0.75299 2.084,-1.47714 2.6356,-2.63556 1.6138,-3.38904 1.6493,-1.06051 2.7098,-10e-6 l 0.1114,0.11137 c 0.7506,0.75061 0.7506,1.95919 0,2.70981 l -2.6356,2.63556 c -0.7506,0.75061 -1.9592,0.75061 -2.7098,0 l -0.1114,-0.11137 c -0.7506,-0.75061 -0.8832,-2.121 0,-2.7098 z"
         style="fill:#d10000;fill-opacity:1;fill-rule:evenodd;stroke:#000000;stroke-width:0.29398039px;stroke-linecap:butt;stroke-linejoin:miter;stroke-opacity:1" />
      <path
         sodipodi:nodetypes="sssssssss"
         inkscape:connector-curvature="0"
         id="rect3096-9-3-8-3"
         d="m 2162.4621,716.84739 c -1.1296,-0.75299 -2.0839,-1.47714 -2.6356,-2.63556 -1.6138,-3.38904 -1.6493,-1.06051 -2.7098,-10e-6 l -0.1113,0.11137 c -0.7507,0.75061 -0.7507,1.95919 0,2.70981 l 2.6355,2.63556 c 0.7506,0.75061 1.9592,0.75061 2.7098,0 l 0.1114,-0.11137 c 0.7506,-0.75061 0.8833,-2.121 0,-2.7098 z"
         style="fill:#d10000;fill-opacity:1;fill-rule:evenodd;stroke:#000000;stroke-width:0.29398039px;stroke-linecap:butt;stroke-linejoin:miter;stroke-opacity:1" />
      <rect
         transform="matrix(0,-1,1,0,0,0)"
         ry="1.9161222"
         y="2150.467"
         x="-727.64954"
         height="3.9897339"
         width="7.5594959"
         id="rect3096-4-4-2-7-8"
         style="fill:#d10000;fill-opacity:1;fill-rule:evenodd;stroke:#000000;stroke-width:0.29398039px;stroke-linecap:butt;stroke-linejoin:miter;stroke-opacity:1" />
      <rect
         transform="matrix(0,-1,1,0,0,0)"
         ry="1.9161222"
         y="2142.8552"
         x="-727.64954"
         height="3.9897339"
         width="7.5594959"
         id="rect3096-4-2-4-7"
         style="fill:#d10000;fill-opacity:1;fill-rule:evenodd;stroke:#000000;stroke-width:0.29398039px;stroke-linecap:butt;stroke-linejoin:miter;stroke-opacity:1" />
      <path
         inkscape:transform-center-x="-0.039024184"
         inkscape:transform-center-y="-1.4644308"
         transform="matrix(0.0503695,0.016696,-0.09402979,0.2836748,2160.0498,671.4532)"
         d="m 91.545075,74.663809 19.912915,34.490181 -39.825833,0 z"
         inkscape:randomized="0"
         inkscape:rounded="0"
         inkscape:flatsided="true"
         sodipodi:arg2="-0.52359878"
         sodipodi:arg1="-1.5707963"
         sodipodi:r2="11.496728"
         sodipodi:r1="22.993456"
         sodipodi:cy="97.657265"
         sodipodi:cx="91.545074"
         sodipodi:sides="3"
         id="path6010-6"
         style="fill:#d10000;fill-opacity:1;stroke:#000000;stroke-width:2.33446622;stroke-linecap:round;stroke-linejoin:round;stroke-miterlimit:4;stroke-opacity:1;stroke-dasharray:none"
         sodipodi:type="star" />
      <path
         inkscape:connector-curvature="0"
         id="rect6059-1"
         d="m 2151.9705,698.2202 c -0.6671,0.0396 -1.3192,0.35432 -1.4607,0.92788 l -0.3491,1.42397 c -2e-4,8.8e-4 -0.2306,1.44746 0.588,1.92006 0.8186,0.47259 0.4649,-0.0424 1.2494,-0.56959 l 1.7087,-1.13918 c 0.7846,-0.52721 0.1939,-1.86087 -0.6247,-2.33347 -0.3069,-0.17722 -0.7113,-0.25342 -1.1116,-0.22967 z m -0.083,1.16674 c 0.092,0.007 0.1737,0.0438 0.2297,0.11024 0.3227,0.38247 0.632,0.8454 0.147,1.37803 -0.4141,0.45478 -0.8975,0.80873 -1.2678,0.55122 -0.3172,-0.22063 -0.134,-0.65022 0.092,-1.36885 0.1398,-0.44456 0.5237,-0.69053 0.7992,-0.67064 z"
         style="fill:#d10000;fill-opacity:1;fill-rule:evenodd;stroke:#000000;stroke-width:0.29398039px;stroke-linecap:butt;stroke-linejoin:miter;stroke-opacity:1" />
      <path
         inkscape:connector-curvature="0"
         id="rect6070-7"
         d="m 2146.21,698.10143 c -0.3851,0.12417 -0.7602,0.40386 -1.079,0.82288 -0.5097,0.67006 -0.842,1.26473 -0.2396,1.97407 l 1.5044,1.76948 c 0.6024,0.70934 2.2185,0.0193 1.7971,-0.81053 -0.3301,-0.65022 -0.084,-1.61816 -0.1285,-2.04539 l -0.031,-0.27234 c -0.1304,-1.25569 -0.9766,-1.71133 -1.8237,-1.43817 z m 0.037,1.79503 c 0.4702,-0.18862 0.8744,0.0215 1.0747,0.61583 0.1598,0.47396 0.3395,0.86871 -0.053,1.14359 -0.3474,0.24321 -0.6359,0.35687 -1.1319,-0.15507 -0.3828,-0.3951 -0.5622,-1.20981 -0.096,-1.49989 0.07,-0.0433 0.1392,-0.0775 0.2064,-0.10444 z"
         style="fill:#d10000;fill-opacity:1;fill-rule:evenodd;stroke:#000000;stroke-width:0.29398039px;stroke-linecap:butt;stroke-linejoin:miter;stroke-opacity:1" />
      <path
         inkscape:transform-center-x="0.038990377"
         inkscape:transform-center-y="-1.4644308"
         transform="matrix(-0.0503695,0.016696,0.09402979,0.2836748,2138.178,671.4532)"
         d="m 91.545075,74.663809 19.912915,34.490181 -39.825833,0 z"
         inkscape:randomized="0"
         inkscape:rounded="0"
         inkscape:flatsided="true"
         sodipodi:arg2="-0.52359878"
         sodipodi:arg1="-1.5707963"
         sodipodi:r2="11.496728"
         sodipodi:r1="22.993456"
         sodipodi:cy="97.657265"
         sodipodi:cx="91.545074"
         sodipodi:sides="3"
         id="path6010-0-2"
         style="fill:#d10000;fill-opacity:1;stroke:#000000;stroke-width:2.33446622;stroke-linecap:round;stroke-linejoin:round;stroke-miterlimit:4;stroke-opacity:1;stroke-dasharray:none"
         sodipodi:type="star" />
      <path
         sodipodi:nodetypes="sssssss"
         inkscape:connector-curvature="0"
         id="rect3024-1-7-3"
         d="m 2149.0452,701.89681 c 5.2122,0 9.4083,3.27999 9.4083,7.35424 l 0,6.39498 c 0,7.38802 0.1548,7.35424 -9.4083,7.35424 -9.4144,0 -9.4083,0.005 -9.4083,-7.35424 l 0,-6.39498 c 0,-4.07425 4.1961,-7.35424 9.4083,-7.35424 z"
         style="fill:#d10000;fill-opacity:1;fill-rule:evenodd;stroke:#000000;stroke-width:0.26037988px;stroke-linecap:round;stroke-linejoin:round;stroke-opacity:1" />
      <path
         transform="matrix(0.38192325,0,0,0.38192325,2088.5851,644.67407)"
         d="m 156.96429,169.28572 c 0,4.33938 -3.51776,7.85714 -7.85714,7.85714 -4.33938,0 -7.85715,-3.51776 -7.85715,-7.85714 0,-4.33938 3.51777,-7.85714 7.85715,-7.85714 4.33938,0 7.85714,3.51776 7.85714,7.85714 z"
         sodipodi:ry="7.8571429"
         sodipodi:rx="7.8571429"
         sodipodi:cy="169.28572"
         sodipodi:cx="149.10715"
         id="path3213-8-9-7"
         style="fill:#fffdf6;fill-opacity:1;fill-rule:evenodd;stroke:#000000;stroke-width:1px;stroke-linecap:butt;stroke-linejoin:miter;stroke-opacity:1"
         sodipodi:type="arc" />
      <path
         transform="matrix(0.2513512,0,0,0.2513512,2108.0543,666.77805)"
         d="m 156.96429,169.28572 c 0,4.33938 -3.51776,7.85714 -7.85714,7.85714 -4.33938,0 -7.85715,-3.51776 -7.85715,-7.85714 0,-4.33938 3.51777,-7.85714 7.85715,-7.85714 4.33938,0 7.85714,3.51776 7.85714,7.85714 z"
         sodipodi:ry="7.8571429"
         sodipodi:rx="7.8571429"
         sodipodi:cy="169.28572"
         sodipodi:cx="149.10715"
         id="path3213-82-5-3-8"
         style="fill:#099846;fill-opacity:1;fill-rule:evenodd;stroke:#000000;stroke-width:1px;stroke-linecap:butt;stroke-linejoin:miter;stroke-opacity:1"
         sodipodi:type="arc" />
      <path
         transform="matrix(0.15750254,0,0,0.15750254,2122.0478,682.66529)"
         d="m 156.96429,169.28572 c 0,4.33938 -3.51776,7.85714 -7.85714,7.85714 -4.33938,0 -7.85715,-3.51776 -7.85715,-7.85714 0,-4.33938 3.51777,-7.85714 7.85715,-7.85714 4.33938,0 7.85714,3.51776 7.85714,7.85714 z"
         sodipodi:ry="7.8571429"
         sodipodi:rx="7.8571429"
         sodipodi:cy="169.28572"
         sodipodi:cx="149.10715"
         id="path3213-82-4-7-1-5"
         style="fill:#001321;fill-opacity:1;fill-rule:evenodd;stroke:#000000;stroke-width:1px;stroke-linecap:butt;stroke-linejoin:miter;stroke-opacity:1"
         sodipodi:type="arc" />
      <path
         transform="matrix(0.38192325,0,0,0.38192325,2095.8296,644.72656)"
         d="m 156.96429,169.28572 c 0,4.33938 -3.51776,7.85714 -7.85714,7.85714 -4.33938,0 -7.85715,-3.51776 -7.85715,-7.85714 0,-4.33938 3.51777,-7.85714 7.85715,-7.85714 4.33938,0 7.85714,3.51776 7.85714,7.85714 z"
         sodipodi:ry="7.8571429"
         sodipodi:rx="7.8571429"
         sodipodi:cy="169.28572"
         sodipodi:cx="149.10715"
         id="path3213-2-6-9-8"
         style="fill:#fffdf6;fill-opacity:1;fill-rule:evenodd;stroke:#000000;stroke-width:1px;stroke-linecap:butt;stroke-linejoin:miter;stroke-opacity:1"
         sodipodi:type="arc" />
      <path
         transform="matrix(0.2513512,0,0,0.2513512,2115.2988,666.83055)"
         d="m 156.96429,169.28572 c 0,4.33938 -3.51776,7.85714 -7.85714,7.85714 -4.33938,0 -7.85715,-3.51776 -7.85715,-7.85714 0,-4.33938 3.51777,-7.85714 7.85715,-7.85714 4.33938,0 7.85714,3.51776 7.85714,7.85714 z"
         sodipodi:ry="7.8571429"
         sodipodi:rx="7.8571429"
         sodipodi:cy="169.28572"
         sodipodi:cx="149.10715"
         id="path3213-82-7-1-8-5"
         style="fill:#099846;fill-opacity:1;fill-rule:evenodd;stroke:#000000;stroke-width:1px;stroke-linecap:butt;stroke-linejoin:miter;stroke-opacity:1"
         sodipodi:type="arc" />
      <path
         transform="matrix(0.15750254,0,0,0.15750254,2129.2923,682.71778)"
         d="m 156.96429,169.28572 c 0,4.33938 -3.51776,7.85714 -7.85714,7.85714 -4.33938,0 -7.85715,-3.51776 -7.85715,-7.85714 0,-4.33938 3.51777,-7.85714 7.85715,-7.85714 4.33938,0 7.85714,3.51776 7.85714,7.85714 z"
         sodipodi:ry="7.8571429"
         sodipodi:rx="7.8571429"
         sodipodi:cy="169.28572"
         sodipodi:cx="149.10715"
         id="path3213-82-4-6-8-6-8"
         style="fill:#001321;fill-opacity:1;fill-rule:evenodd;stroke:#000000;stroke-width:1px;stroke-linecap:butt;stroke-linejoin:miter;stroke-opacity:1"
         sodipodi:type="arc" />
      <path
         inkscape:transform-center-y="0.0041404685"
         inkscape:transform-center-x="-0.036524368"
         transform="matrix(0.2939804,0,0,0.2939804,2069.8195,655.46681)"
         d="m 256.60714,182.99108 -0.64599,-0.70604 -0.94783,0.13189 0.47186,-0.83255 -0.41833,-0.86069 0.93761,0.19149 0.68929,-0.66382 0.10762,0.9509 0.84434,0.45042 -0.87111,0.3962 z"
         inkscape:randomized="0"
         inkscape:rounded="0"
         inkscape:flatsided="false"
         sodipodi:arg2="1.9165599"
         sodipodi:arg1="1.2882414"
         sodipodi:r2="0.72053629"
         sodipodi:r1="1.4410725"
         sodipodi:cy="181.60715"
         sodipodi:cx="256.20535"
         sodipodi:sides="5"
         id="path3361-2-0-7"
         style="fill:#fffff3;fill-opacity:1"
         sodipodi:type="star" />
      <path
         sodipodi:end="0.0039088178"
         sodipodi:start="0"
         transform="matrix(0.2939804,0,0,0.2939804,2094.6925,634.45962)"
         d="m 150.51274,193.05354 c 0,0.021 -4e-5,0.042 -1.2e-4,0.0629 l -14.6471,-0.0629 z"
         sodipodi:ry="16.099306"
         sodipodi:rx="14.647212"
         sodipodi:cy="193.05354"
         sodipodi:cx="135.86552"
         id="path4345-0-3"
         style="fill:#d10000;fill-opacity:1;stroke-width:2;stroke-miterlimit:4;stroke-dasharray:none"
         sodipodi:type="arc" />
      <path
         inkscape:transform-center-y="0.0041404685"
         inkscape:transform-center-x="-0.036478411"
         transform="matrix(0.2939804,0,0,0.2939804,2077.1296,655.46681)"
         d="m 256.60714,182.99108 -0.64599,-0.70604 -0.94783,0.13189 0.47186,-0.83255 -0.41833,-0.86069 0.93761,0.19149 0.68929,-0.66382 0.10762,0.9509 0.84434,0.45042 -0.87111,0.3962 z"
         inkscape:randomized="0"
         inkscape:rounded="0"
         inkscape:flatsided="false"
         sodipodi:arg2="1.9165599"
         sodipodi:arg1="1.2882414"
         sodipodi:r2="0.72053629"
         sodipodi:r1="1.4410725"
         sodipodi:cy="181.60715"
         sodipodi:cx="256.20535"
         sodipodi:sides="5"
         id="path3361-2-0-0-3"
         style="fill:#fffff3;fill-opacity:1"
         sodipodi:type="star" />
      <path
         inkscape:connector-curvature="0"
         id="path3359-0-0-2"
         d="m 2146.786,713.11027 3.7579,-0.60125 -1.7286,1.7286 z"
         style="fill:#c4c4bf;fill-opacity:1;stroke:#000000;stroke-width:0.42087841px;stroke-linecap:butt;stroke-linejoin:miter;stroke-opacity:1" />
    </g>
  </g>
</svg>
