<?xml version="1.0" encoding="UTF-8" standalone="no"?>
<!-- Created with Inkscape (http://www.inkscape.org/) -->

<svg
   xmlns:dc="http://purl.org/dc/elements/1.1/"
   xmlns:cc="http://creativecommons.org/ns#"
   xmlns:rdf="http://www.w3.org/1999/02/22-rdf-syntax-ns#"
   xmlns:svg="http://www.w3.org/2000/svg"
   xmlns="http://www.w3.org/2000/svg"
   xmlns:sodipodi="http://sodipodi.sourceforge.net/DTD/sodipodi-0.dtd"
   xmlns:inkscape="http://www.inkscape.org/namespaces/inkscape"
   width="60"
   height="60"
   id="svg4256"
   version="1.1"
   inkscape:version="0.48.4 r9939"
   sodipodi:docname="soundButton.svg"
   inkscape:export-filename="C:\Users\Zinbo\search for a star\low_res\soundButton.png"
   inkscape:export-xdpi="90"
   inkscape:export-ydpi="90">
  <defs
     id="defs4258" />
  <sodipodi:namedview
     id="base"
     pagecolor="#ffffff"
     bordercolor="#666666"
     borderopacity="1.0"
     inkscape:pageopacity="0.0"
     inkscape:pageshadow="2"
     inkscape:zoom="7.3135044"
     inkscape:cx="37.360658"
     inkscape:cy="22.010489"
     inkscape:document-units="px"
     inkscape:current-layer="g4229"
     showgrid="false"
     inkscape:window-width="1920"
     inkscape:window-height="1018"
     inkscape:window-x="-8"
     inkscape:window-y="-8"
     inkscape:window-maximized="1" />
  <metadata
     id="metadata4261">
    <rdf:RDF>
      <cc:Work
         rdf:about="">
        <dc:format>image/svg+xml</dc:format>
        <dc:type
           rdf:resource="http://purl.org/dc/dcmitype/StillImage" />
        <dc:title />
      </cc:Work>
    </rdf:RDF>
  </metadata>
  <g
     inkscape:label="Layer 1"
     inkscape:groupmode="layer"
     id="layer1"
     transform="translate(0,-992.3622)">
    <g
       id="g4229"
       transform="matrix(1.3274338,0,0,1.4053071,-123.79942,203.30801)">
      <rect
         ry="8.2518768"
         y="561.91534"
         x="93.721321"
         height="41.827972"
         width="44.281689"
         id="rect3078"
         style="fill:#01a7bf;fill-opacity:1;fill-rule:evenodd;stroke:#000000;stroke-width:0.89239872;stroke-linecap:butt;stroke-linejoin:miter;stroke-miterlimit:4;stroke-opacity:1;stroke-dasharray:none" />
      <path
         inkscape:connector-curvature="0"
         id="path3116"
         d="m 114.01869,594.82734 c -0.14089,-0.069 -1.05747,-0.86764 -2.03649,-1.77373 -0.97901,-0.90609 -2.35762,-2.18215 -3.06355,-2.83576 -0.70584,-0.65349 -1.79191,-1.65851 -2.41344,-2.23319 l -1.12999,-1.04485 -2.30353,0 -2.30353,0 -0.32302,-0.20666 c -0.1778,-0.11365 -0.37292,-0.28873 -0.43403,-0.38922 -0.084,-0.13815 -0.117847,-1.01815 -0.139217,-3.58386 -0.0344,-4.16898 -0.0209,-4.33349 0.397047,-4.71484 l 0.31106,-0.28416 2.36069,-0.002 2.36067,-0.002 2.68202,-2.47629 c 1.47506,-1.36193 3.33734,-3.08253 4.13825,-3.82353 1.64655,-1.52344 1.88138,-1.69585 2.41087,-1.77056 0.39371,-0.0553 1.00564,0.13553 1.00564,0.31392 0,0.0478 0.0685,0.15781 0.15247,0.2451 0.14353,0.14912 0.15285,0.83014 0.15285,11.8484 0,6.42941 -0.0312,11.82715 -0.0688,11.99483 -0.0381,0.16807 -0.19916,0.43511 -0.35879,0.59417 -0.25868,0.25801 -0.33578,0.28824 -0.71523,0.28049 -0.23408,-0.007 -0.54074,-0.0656 -0.68178,-0.13519 l 0,0 z"
         style="opacity:0.98000004;fill:#ffffff;fill-opacity:1;fill-rule:evenodd;stroke:#000000;stroke-width:0.74366558;stroke-linecap:butt;stroke-linejoin:bevel;stroke-miterlimit:4;stroke-opacity:1;stroke-dasharray:none;stroke-dashoffset:0" />
      <path
         inkscape:connector-curvature="0"
         id="path3118"
         d="m 117.44737,586.58901 c -0.39628,-0.25123 -0.52925,-0.51436 -0.48926,-0.96842 0.041,-0.46844 0.26329,-0.76023 0.71469,-0.93959 0.95184,-0.37798 1.25837,-0.5971 1.66599,-1.1905 0.2285,-0.33247 0.24822,-0.42374 0.24875,-1.13992 4.9e-4,-0.70982 -0.022,-0.81297 -0.24711,-1.1684 -0.32922,-0.51838 -0.82861,-0.90765 -1.44067,-1.12298 -0.69222,-0.24354 -0.96791,-0.56403 -0.96735,-1.12469 6.2e-4,-0.58066 0.53657,-1.09121 1.14548,-1.09121 0.35159,0 1.24174,0.34324 1.81992,0.70173 0.53305,0.33063 1.30323,1.07073 1.30323,1.25245 0,0.0446 0.0294,0.0933 0.0654,0.10821 0.0362,0.0139 0.15477,0.20026 0.26461,0.41125 0.90354,1.74055 0.52395,3.84957 -0.93995,5.22247 -0.31658,0.29696 -0.69115,0.59357 -0.8323,0.65927 -0.14106,0.0656 -0.31546,0.16076 -0.38735,0.2113 -0.19917,0.14058 -1.03042,0.36593 -1.34747,0.36593 -0.15476,0 -0.41471,-0.0842 -0.57681,-0.18679 z"
         style="opacity:0.98000004;fill:#ffffff;fill-opacity:1;fill-rule:evenodd;stroke:#000000;stroke-width:0.74366558;stroke-linecap:butt;stroke-linejoin:bevel;stroke-miterlimit:4;stroke-opacity:1;stroke-dasharray:none;stroke-dashoffset:0" />
      <path
         inkscape:connector-curvature="0"
         id="path3120"
         d="m 120.55905,590.32904 c -0.58993,-0.51456 -0.58435,-1.21017 0.0106,-1.72561 0.17285,-0.14892 0.34998,-0.27044 0.3941,-0.27044 0.14528,0 0.96571,-0.59649 1.45907,-1.06056 0.8969,-0.84362 1.44674,-1.70723 1.88143,-2.95503 0.22467,-0.64492 0.24247,-0.79381 0.24191,-2.00784 -5.7e-4,-1.22567 -0.0176,-1.35928 -0.25532,-2.04872 -0.59059,-1.70969 -1.81089,-3.1584 -3.36956,-4.0003 -0.73381,-0.39631 -0.99285,-0.92058 -0.74631,-1.51031 0.23807,-0.56922 1.05986,-0.86246 1.60616,-0.57307 0.10523,0.0555 0.35997,0.18833 0.56633,0.29461 0.20628,0.10647 0.39474,0.21801 0.41877,0.24844 0.0247,0.0302 0.23967,0.18894 0.47912,0.35267 0.57213,0.3907 1.53455,1.35033 1.94084,1.93515 0.17799,0.25643 0.34449,0.4848 0.36969,0.50732 0.11278,0.10091 0.60488,1.07647 0.80606,1.59804 0.71866,1.86371 0.81335,3.56557 0.30788,5.53168 -0.12419,0.48368 -0.75779,1.97176 -0.90974,2.13716 -0.0654,0.0716 -0.11858,0.15781 -0.11858,0.19211 0,0.0345 -0.23232,0.36351 -0.51616,0.73112 -0.81202,1.05148 -1.99254,2.0582 -3.08875,2.63388 -0.54989,0.28876 -1.14228,0.28459 -1.48054,-0.0105 l 0,0 z"
         style="opacity:0.98000004;fill:#ffffff;fill-opacity:1;fill-rule:evenodd;stroke:#000000;stroke-width:0.74366558;stroke-linecap:butt;stroke-linejoin:bevel;stroke-miterlimit:4;stroke-opacity:1;stroke-dasharray:none;stroke-dashoffset:0" />
      <path
         inkscape:connector-curvature="0"
         id="path3122"
         d="m 123.5953,593.75823 c -0.45156,-0.14737 -0.82586,-0.61607 -0.82586,-1.03396 0,-0.47958 0.43375,-0.95281 1.14328,-1.24756 0.86555,-0.3594 3.05241,-2.21003 3.51025,-2.97046 0.0436,-0.0731 0.10436,-0.15067 0.13457,-0.174 0.0712,-0.0531 0.78762,-1.13038 0.78762,-1.184 0,-0.0232 0.0945,-0.23527 0.2107,-0.47325 0.27369,-0.56155 0.60578,-1.50398 0.80219,-2.27641 0.22713,-0.89333 0.22359,-3.31769 -0.0106,-4.17945 -0.61951,-2.32479 -1.48488,-3.8152 -3.09481,-5.33015 -0.75724,-0.71259 -1.89321,-1.55377 -2.09835,-1.55377 -0.0453,0 -0.0828,-0.0372 -0.0828,-0.0819 0,-0.0453 -0.049,-0.0821 -0.10892,-0.0823 -0.0599,-2.2e-4 -0.28344,-0.10962 -0.49677,-0.2425 -0.67517,-0.42135 -0.87697,-1.04575 -0.50512,-1.56239 0.21586,-0.29987 0.62258,-0.55684 0.89307,-0.56422 0.20106,-0.0104 0.75204,0.16425 0.92639,0.28553 0.0654,0.0458 0.23671,0.13606 0.3804,0.20103 0.14389,0.0649 0.3827,0.20151 0.53097,0.30395 0.14862,0.10229 0.2953,0.18597 0.32669,0.18597 0.0318,0 0.12947,0.0645 0.21837,0.14371 0.0883,0.079 0.26736,0.21495 0.39755,0.30219 0.65696,0.4409 1.72582,1.43039 2.41293,2.23354 0.19628,0.22936 0.88494,1.17998 0.99798,1.37742 0.0516,0.0901 0.19102,0.32988 0.30955,0.53271 1.64596,2.81304 2.01881,6.52938 0.97439,9.71115 -0.25261,0.76986 -0.243,0.7472 -0.77727,1.8029 -0.38587,0.76268 -1.1932,1.97349 -1.69158,2.53725 -0.49208,0.5565 -1.71725,1.64951 -2.30532,2.05664 -0.19182,0.13276 -0.36162,0.26898 -0.37759,0.30273 -0.014,0.0341 -0.0608,0.0615 -0.0991,0.0615 -0.0386,0 -0.30479,0.14704 -0.59177,0.32778 -0.28707,0.18049 -0.55305,0.32787 -0.59119,0.32787 -0.0378,0 -0.13423,0.0548 -0.21344,0.12249 -0.16513,0.14023 -0.82943,0.22525 -1.09132,0.14023 l 0,0 z"
         style="opacity:0.98000004;fill:#ffffff;fill-opacity:1;fill-rule:evenodd;stroke:#000000;stroke-width:0.74366558;stroke-linecap:butt;stroke-linejoin:bevel;stroke-miterlimit:4;stroke-opacity:1;stroke-dasharray:none;stroke-dashoffset:0" />
    </g>
  </g>
</svg>
